REM DIRINDEX 1\2\6,1\2\7,1\2\8,1\3\9,1\3\10,1\3\11,1\4\12,1\4\13,1\4\14,1\5\15,1\5\16,1\5\17,1\5\18
REM DIRNAME folder01,folder02,folder03,folder04,folder05,folder06,folder07,folder08,folder09,folder10,folder11,folder12,folder13,folder14,folder15,folder16,folder17,folder18
TITLE ""
FILE "" MP3
  TRACK 01 AUDIO
    TITLE "16:cjc019_7229"
    INDEX 01 00:00:00
  TRACK 02 AUDIO
    TITLE "0:"
    INDEX 01 00:01:01
  TRACK 03 AUDIO
    TITLE "18:cjc019_7230"
    INDEX 01 00:01:58
  TRACK 04 AUDIO
    TITLE "0:"
    INDEX 01 00:05:07
  TRACK 05 AUDIO
    TITLE "17:cjc019_7231"
    INDEX 01 00:05:61
  TRACK 06 AUDIO
    TITLE "0:"
    INDEX 01 00:06:73
  TRACK 07 AUDIO
    TITLE "16:cjc019_7232"
    INDEX 01 00:08:58
  TRACK 08 AUDIO
    TITLE "0:"
    INDEX 01 00:10:10
  TRACK 09 AUDIO
    TITLE "18:cjc019_7233"
    INDEX 01 00:10:68
  TRACK 10 AUDIO
    TITLE "0:"
    INDEX 01 00:13:49
  TRACK 11 AUDIO
    TITLE "17:cjc019_7234"
    INDEX 01 00:14:31
  TRACK 12 AUDIO
    TITLE "0:"
    INDEX 01 00:15:58
  TRACK 13 AUDIO
    TITLE "16:cjc019_7235"
    INDEX 01 00:17:43
  TRACK 14 AUDIO
    TITLE "0:"
    INDEX 01 00:18:60
  TRACK 15 AUDIO
    TITLE "18:cjc019_7236"
    INDEX 01 00:19:46
  TRACK 16 AUDIO
    TITLE "0:"
    INDEX 01 00:23:63
  TRACK 17 AUDIO
    TITLE "17:cjc019_7237"
    INDEX 01 00:24:43
  TRACK 18 AUDIO
    TITLE "0:"
    INDEX 01 00:25:64
  TRACK 19 AUDIO
    TITLE "16:cjc019_7238"
    INDEX 01 00:27:47
  TRACK 20 AUDIO
    TITLE "0:"
    INDEX 01 00:28:74
  TRACK 21 AUDIO
    TITLE "18:cjc019_7239"
    INDEX 01 00:29:58
  TRACK 22 AUDIO
    TITLE "0:"
    INDEX 01 00:31:24
  TRACK 23 AUDIO
    TITLE "17:cjc019_7240"
    INDEX 01 00:32:01
  TRACK 24 AUDIO
    TITLE "0:"
    INDEX 01 00:33:24
  TRACK 25 AUDIO
    TITLE "16:cjc019_7241"
    INDEX 01 00:35:08
  TRACK 26 AUDIO
    TITLE "0:"
    INDEX 01 00:36:31
  TRACK 27 AUDIO
    TITLE "18:cjc019_7242"
    INDEX 01 00:37:14
  TRACK 28 AUDIO
    TITLE "0:"
    INDEX 01 00:42:31
  TRACK 29 AUDIO
    TITLE "17:cjc019_7243"
    INDEX 01 00:43:13
  TRACK 30 AUDIO
    TITLE "0:"
    INDEX 01 00:44:34
  TRACK 31 AUDIO
    TITLE "16:cjc019_7244"
    INDEX 01 00:46:19
  TRACK 32 AUDIO
    TITLE "0:"
    INDEX 01 00:47:38
  TRACK 33 AUDIO
    TITLE "18:cjc019_7245"
    INDEX 01 00:48:20
  TRACK 34 AUDIO
    TITLE "0:"
    INDEX 01 00:51:03
  TRACK 35 AUDIO
    TITLE "17:cjc019_7246"
    INDEX 01 00:51:54
  TRACK 36 AUDIO
    TITLE "0:"
    INDEX 01 00:53:04
  TRACK 37 AUDIO
    TITLE "16:cjc019_7247"
    INDEX 01 00:54:62
  TRACK 38 AUDIO
    TITLE "0:"
    INDEX 01 00:56:04
  TRACK 39 AUDIO
    TITLE "18:cjc019_7248"
    INDEX 01 00:56:57
  TRACK 40 AUDIO
    TITLE "0:"
    INDEX 01 00:58:01
  TRACK 41 AUDIO
    TITLE "17:cjc019_7249"
    INDEX 01 00:58:58
  TRACK 42 AUDIO
    TITLE "0:"
    INDEX 01 01:00:04
  TRACK 43 AUDIO
    TITLE "16:cjc019_7250"
    INDEX 01 01:01:64
  TRACK 44 AUDIO
    TITLE "0:"
    INDEX 01 01:03:04
  TRACK 45 AUDIO
    TITLE "18:cjc019_7251"
    INDEX 01 01:03:63
  TRACK 46 AUDIO
    TITLE "0:"
    INDEX 01 01:07:68
  TRACK 47 AUDIO
    TITLE "17:cjc019_7252"
    INDEX 01 01:08:46
  TRACK 48 AUDIO
    TITLE "0:"
    INDEX 01 01:09:61
  TRACK 49 AUDIO
    TITLE "16:cjc019_7253"
    INDEX 01 01:11:45
  TRACK 50 AUDIO
    TITLE "0:"
    INDEX 01 01:12:46
  TRACK 51 AUDIO
    TITLE "18:cjc019_7254"
    INDEX 01 01:13:30
  TRACK 52 AUDIO
    TITLE "0:"
    INDEX 01 01:17:00
  TRACK 53 AUDIO
    TITLE "17:cjc019_7255"
    INDEX 01 01:17:53
  TRACK 54 AUDIO
    TITLE "0:"
    INDEX 01 01:18:58
  TRACK 55 AUDIO
    TITLE "16:cjc019_7256"
    INDEX 01 01:20:38
  TRACK 56 AUDIO
    TITLE "0:"
    INDEX 01 01:21:49
  TRACK 57 AUDIO
    TITLE "18:cjc019_7257"
    INDEX 01 01:22:29
  TRACK 58 AUDIO
    TITLE "0:"
    INDEX 01 01:24:63
  TRACK 59 AUDIO
    TITLE "17:cjc019_7258"
    INDEX 01 01:25:41
  TRACK 60 AUDIO
    TITLE "0:"
    INDEX 01 01:26:50
  TRACK 61 AUDIO
    TITLE "16:cjc019_7259"
    INDEX 01 01:28:33
  TRACK 62 AUDIO
    TITLE "0:"
    INDEX 01 01:29:48
  TRACK 63 AUDIO
    TITLE "18:cjc019_7260"
    INDEX 01 01:30:26
  TRACK 64 AUDIO
    TITLE "0:"
    INDEX 01 01:32:13
  TRACK 65 AUDIO
    TITLE "17:cjc019_7261"
    INDEX 01 01:32:68
  TRACK 66 AUDIO
    TITLE "0:"
    INDEX 01 01:34:01
  TRACK 67 AUDIO
    TITLE "16:cjc019_7262"
    INDEX 01 01:35:61
  TRACK 68 AUDIO
    TITLE "0:"
    INDEX 01 01:37:15
  TRACK 69 AUDIO
    TITLE "18:cjc019_7263"
    INDEX 01 01:37:73
  TRACK 70 AUDIO
    TITLE "0:"
    INDEX 01 01:40:31
  TRACK 71 AUDIO
    TITLE "17:cjc019_7264"
    INDEX 01 01:41:12
  TRACK 72 AUDIO
    TITLE "0:"
    INDEX 01 01:42:43
  TRACK 73 AUDIO
    TITLE "16:cjc019_7265"
    INDEX 01 01:44:26
  TRACK 74 AUDIO
    TITLE "0:"
    INDEX 01 01:45:59
  TRACK 75 AUDIO
    TITLE "18:cjc019_7266"
    INDEX 01 01:46:39
  TRACK 76 AUDIO
    TITLE "0:"
    INDEX 01 01:48:24
  TRACK 77 AUDIO
    TITLE "17:cjc019_7267"
    INDEX 01 01:48:73
  TRACK 78 AUDIO
    TITLE "0:"
    INDEX 01 01:50:33
  TRACK 79 AUDIO
    TITLE "16:cjc019_7268"
    INDEX 01 01:52:16
  TRACK 80 AUDIO
    TITLE "0:"
    INDEX 01 01:53:27
  TRACK 81 AUDIO
    TITLE "18:cjc019_7269"
    INDEX 01 01:54:11
  TRACK 82 AUDIO
    TITLE "0:"
    INDEX 01 01:55:65
  TRACK 83 AUDIO
    TITLE "17:cjc019_7270"
    INDEX 01 01:56:41
  TRACK 84 AUDIO
    TITLE "0:"
    INDEX 01 01:57:58
  TRACK 85 AUDIO
    TITLE "16:cjc019_7271"
    INDEX 01 01:59:42
  TRACK 86 AUDIO
    TITLE "0:"
    INDEX 01 02:01:09
  TRACK 87 AUDIO
    TITLE "18:cjc019_7272"
    INDEX 01 02:01:68
  TRACK 88 AUDIO
    TITLE "0:"
    INDEX 01 02:07:29
  TRACK 89 AUDIO
    TITLE "17:cjc019_7273"
    INDEX 01 02:08:09
  TRACK 90 AUDIO
    TITLE "0:"
    INDEX 01 02:09:52
  TRACK 91 AUDIO
    TITLE "16:cjc019_7274"
    INDEX 01 02:11:31
  TRACK 92 AUDIO
    TITLE "0:"
    INDEX 01 02:12:70
  TRACK 93 AUDIO
    TITLE "18:cjc019_7275"
    INDEX 01 02:13:44
  TRACK 94 AUDIO
    TITLE "0:"
    INDEX 01 02:16:64
  TRACK 95 AUDIO
    TITLE "17:cjc019_7276"
    INDEX 01 02:17:38
  TRACK 96 AUDIO
    TITLE "0:"
    INDEX 01 02:19:05
